# xmcd
#
# Track frame offsets:
#	150
#	25919
#	78349
#	89845
#	123277
#	164152
#	186195
#	206136
#	221607
#	241309
#	274019
#	291630
#	323922
#
# Disc length: 4680 seconds
#
# Revision: 2
# Processed by: cddbd v1.5.2PL0 Copyright (c) Steve Scherf et al.
# Submitted via: EZCDAudioConverter 1.3.4.1
#
DISCID=cc12460d
DTITLE=V/A - Cave Of Clear Light 2/3
DYEAR=2010
DGENRE=
TTITLE0=Fire - Tell You A Story
TTITLE1=Titus Groan - Hall Of Bright Carvings
TTITLE2=Atlantic Bridge - Hillary Dixon
TTITLE3=Comus - Song To Comus
TTITLE4=Mungo Jerry - I Just Wanna Make Love To You
TTITLE5=Jackie Mcauley - Cameramen - Wilson And Holmes
TTITLE6=Pluto - Road To Glory
TTITLE7=Quiet World - Body To The Mind
TTITLE8=Trifle - One Way Glass
TTITLE9=Mike Cooper - Pharaoh's March
TTITLE10=Demon Fuzz - I Put A Spell On You
TTITLE11=Status Quo - Someone's Learning
TTITLE12=Atomic Rooster - Time Take My Life
EXTD=
EXTT0=
EXTT1=
EXTT2=
EXTT3=
EXTT4=
EXTT5=
EXTT6=
EXTT7=
EXTT8=
EXTT9=
EXTT10=
EXTT11=
EXTT12=
PLAYORDER=
